HIERARCHY
ROOT Hips
{
	OFFSET 0.000000 0.000000 0.000000
	CHANNELS 6 Xposition Yposition Zposition Xrotation Yrotation Zrotation
	JOINT Spine
	{
		OFFSET 0.000000 0.000000 0.102259
		CHANNELS 3 Xrotation Yrotation Zrotation
		JOINT Spine1
		{
			OFFSET 0.000000 -0.017757 0.100705
			CHANNELS 3 Xrotation Yrotation Zrotation
			JOINT Spine2
			{
				OFFSET 0.000000 -0.008912 0.101870
				CHANNELS 3 Xrotation Yrotation Zrotation
				JOINT Spine3
				{
					OFFSET 0.000000 0.000000 0.102259
					CHANNELS 3 Xrotation Yrotation Zrotation
					JOINT Neck
					{
						OFFSET 0.000000 0.013148 0.131476
						CHANNELS 3 Xrotation Yrotation Zrotation
						JOINT Neck1
						{
							OFFSET 0.000000 0.003817 0.043628
							CHANNELS 3 Xrotation Yrotation Zrotation
							JOINT Head
							{
								OFFSET 0.000000 0.007605 0.043130
								CHANNELS 3 Xrotation Yrotation Zrotation
								End Site
								{
									OFFSET 0.000000 0.000000 0.097916
								}
							}
						}
					}
					JOINT RightShoulder
					{
						OFFSET 0.000000 0.000000 0.092033
						CHANNELS 3 Xrotation Yrotation Zrotation
						JOINT RightArm
						{
							OFFSET 0.166682 0.000000 0.000000
							CHANNELS 3 Xrotation Yrotation Zrotation
							JOINT RightForeArm
							{
								OFFSET 0.339269 0.000000 0.000000
								CHANNELS 3 Xrotation Yrotation Zrotation
								JOINT RightHand
								{
									OFFSET 0.272813 0.000000 0.000000
									CHANNELS 3 Xrotation Yrotation Zrotation
									End Site
									{
										OFFSET 0.042337 0.031482 -0.014412
									}
									End Site
									{
										OFFSET 0.112899 -0.001086 0.000000
									}
								}
							}
						}
					}
					JOINT LeftShoulder
					{
						OFFSET 0.000000 0.000000 0.092033
						CHANNELS 3 Xrotation Yrotation Zrotation
						JOINT LeftArm
						{
							OFFSET -0.166682 0.000000 0.000000
							CHANNELS 3 Xrotation Yrotation Zrotation
							JOINT LeftForeArm
							{
								OFFSET -0.339269 0.000000 0.000000
								CHANNELS 3 Xrotation Yrotation Zrotation
								JOINT LeftHand
								{
									OFFSET -0.272813 0.000000 0.000000
									CHANNELS 3 Xrotation Yrotation Zrotation
									End Site
									{
										OFFSET -0.042337 0.031482 -0.014412
									}
									End Site
									{
										OFFSET -0.112899 -0.001086 0.000000
									}
								}
							}
						}
					}
				}
			}
		}
	}
	JOINT RightUpLeg
	{
		OFFSET 0.120852 0.000000 0.000000
		CHANNELS 3 Xrotation Yrotation Zrotation
		JOINT RightLeg
		{
			OFFSET 0.000000 0.000000 -0.533302
			CHANNELS 3 Xrotation Yrotation Zrotation
			JOINT RightFoot
			{
				OFFSET 0.000000 0.000000 -0.471812
				CHANNELS 3 Xrotation Yrotation Zrotation
				JOINT RightToeBase
				{
					OFFSET 0.000000 0.169608 -0.043308
					CHANNELS 3 Xrotation Yrotation Zrotation
					End Site
					{
						OFFSET 0.000000 0.063837 0.000000
					}
				}
			}
		}
	}
	JOINT LeftUpLeg
	{
		OFFSET -0.120852 0.000000 0.000000
		CHANNELS 3 Xrotation Yrotation Zrotation
		JOINT LeftLeg
		{
			OFFSET 0.000000 0.000000 -0.533302
			CHANNELS 3 Xrotation Yrotation Zrotation
			JOINT LeftFoot
			{
				OFFSET 0.000000 0.000000 -0.471812
				CHANNELS 3 Xrotation Yrotation Zrotation
				JOINT LeftToeBase
				{
					OFFSET 0.000000 0.169608 -0.043308
					CHANNELS 3 Xrotation Yrotation Zrotation
					End Site
					{
						OFFSET 0.000000 0.064424 0.000000
					}
				}
			}
		}
	}
}
MOTION
Frames: 16
Frame Time: 0.008333
-3.439507 1.064461 -3.644277 -89.751361 6.446833 -9.885853 1.255074 -5.617577 -0.512059 1.279243 -5.640700 -0.018891 -7.868539 0.996965 0.479273 -7.868539 0.996965 0.479273 9.421832 5.942533 -11.626644 -6.530016 4.773502 -11.095672 -28.226404 5.982722 -9.181839 0.776352 7.294592 -6.092023 2.535205 67.037966 3.991242 -10.087019 -27.754205 69.092732 -0.000018 22.963312 -1.404847 -1.940082 -10.577042 -10.455901 -38.620913 -49.037617 -41.335133 112.024237 -21.819513 8.550546 179.999994 -1.089602 -14.860949 22.001876 -16.694147 7.790568 -26.499900 0.000000 0.000000 6.681264 13.191475 4.028366 10.635600 0.000000 0.000000 1.579675 -12.538015 10.013677 -5.559500 0.000000 0.000000 9.183312 10.364793 10.198757 2.225600 0.000000 0.000000 
-3.438733 1.064450 -3.644503 -89.752227 6.484420 -9.926751 1.246384 -5.615188 -0.498894 1.270508 -5.637200 -0.006029 -7.872351 1.005663 0.492876 -7.872351 1.005663 0.492876 9.400139 5.942124 -11.604310 -6.551795 4.776993 -11.074151 -28.249794 5.985371 -9.159257 0.772289 7.261266 -6.087556 2.672787 67.134161 3.847018 -10.149529 -27.764495 68.978506 0.000001 23.125364 -1.372176 -1.934731 -10.584808 -10.420324 -38.600794 -49.045829 -41.327704 112.090061 -21.881960 8.601396 179.999992 -1.123656 -14.873726 21.988688 -16.886374 7.203852 -26.607100 0.000000 0.000000 6.881121 13.037474 3.378896 10.543300 0.000000 0.000000 1.558131 -12.533372 10.011239 -5.537400 0.000000 0.000000 9.203503 10.284184 10.227333 2.169300 0.000000 0.000000 
-3.437905 1.064453 -3.644739 -89.763684 6.506908 -9.976038 1.248564 -5.599301 -0.484110 1.272618 -5.620100 0.007335 -7.877422 1.011761 0.505279 -7.877422 1.011761 0.505279 9.371746 5.945675 -11.584675 -6.578809 4.777900 -11.054595 -28.275633 5.977467 -9.141727 0.766491 7.245598 -6.055304 2.715758 67.171760 3.761091 -10.228812 -27.861792 68.887628 -0.000027 23.271512 -1.339930 -1.929047 -10.589078 -10.385969 -38.605762 -49.058913 -41.344633 112.093947 -21.919137 8.616734 -179.999985 -1.088499 -14.849741 21.986079 -17.046345 6.636270 -26.703700 0.000000 0.000000 7.021335 12.961466 2.778035 10.428500 0.000000 0.000000 1.550637 -12.509628 10.047518 -5.516600 0.000000 0.000000 9.175726 10.304932 10.253335 2.273800 0.000000 0.000000 
-3.437008 1.064481 -3.644988 -89.780440 6.538039 -10.040149 1.256357 -5.593217 -0.465215 1.280306 -5.612399 0.025623 -7.887411 1.019657 0.523183 -7.887411 1.019657 0.523183 9.359698 5.963998 -11.566362 -6.600472 4.786286 -11.033857 -28.310762 5.965840 -9.122324 0.769697 7.291447 -6.042823 2.406075 67.085714 3.988570 -10.217197 -27.812909 68.878867 -0.000006 23.218353 -1.416657 -1.923036 -10.590750 -10.352865 -38.654878 -49.032318 -41.391487 112.169671 -21.956039 8.662566 179.999982 -1.034173 -14.789364 21.990158 -17.199023 6.088938 -26.794700 0.000000 0.000000 7.069221 12.888547 2.278022 10.496300 0.000000 0.000000 1.530608 -12.493176 10.065527 -5.463700 0.000000 0.000000 9.189308 10.218504 10.279479 2.199500 0.000000 0.000000 
-3.436091 1.064489 -3.645247 -89.798347 6.575495 -10.101522 1.256597 -5.587630 -0.448833 1.280544 -5.605399 0.041398 -7.891901 1.030654 0.539287 -7.891901 1.030654 0.539287 9.363788 5.963488 -11.544125 -6.617987 4.787740 -11.010797 -28.359068 5.962876 -9.098543 0.769848 7.275031 -6.057325 2.403881 67.141061 3.978376 -10.299730 -27.900143 68.775836 -0.000021 23.342740 -1.381493 -1.916644 -10.601462 -10.308981 -38.626937 -49.054220 -41.365342 112.136257 -22.047387 8.682004 179.999976 -1.069154 -14.813038 21.978201 -17.363500 5.545231 -26.831300 0.000000 0.000000 7.101395 12.990730 1.853555 10.440300 0.000000 0.000000 1.536108 -12.477395 10.115539 -5.458300 0.000000 0.000000 9.175460 10.222199 10.299628 2.275800 0.000000 0.000000 
-3.435118 1.064499 -3.645547 -89.810288 6.618541 -10.164534 1.265305 -5.591641 -0.434065 1.289318 -5.608097 0.056470 -7.905598 1.042551 0.554992 -7.905598 1.042551 0.554992 9.357430 5.983280 -11.516690 -6.639220 4.798437 -10.980762 -28.401756 5.951906 -9.068997 0.771426 7.306261 -6.043642 2.187994 67.089999 4.134983 -10.300338 -27.872899 68.757290 0.000048 23.331284 -1.432779 -1.908958 -10.593184 -10.276033 -38.614476 -49.077755 -41.352572 112.109717 -22.108879 8.693281 179.999992 -1.061359 -14.825402 21.948995 -17.522893 5.035212 -26.831500 0.000000 0.000000 7.095898 13.138309 1.490216 10.429000 0.000000 0.000000 1.510599 -12.469882 10.134409 -5.411600 0.000000 0.000000 9.195609 10.127522 10.328657 2.210800 0.000000 0.000000 
-3.434085 1.064496 -3.645854 -89.825159 6.665347 -10.235734 1.265876 -5.600851 -0.419302 1.289950 -5.615996 0.072046 -7.908952 1.056847 0.572097 -7.908952 1.056847 0.572097 9.346823 6.024071 -11.497751 -6.656252 4.811405 -10.956183 -28.427079 5.919315 -9.050559 0.768699 7.324426 -6.008030 2.088162 67.073281 4.161455 -10.313952 -27.893219 68.744140 -0.000009 23.338218 -1.461499 -1.898575 -10.587815 -10.226664 -38.601839 -49.105939 -41.328375 112.099806 -22.189651 8.718716 -179.999963 -1.086159 -14.815123 21.917908 -17.671213 4.559151 -26.809100 0.000000 0.000000 7.058273 13.346171 1.201246 10.442000 0.000000 0.000000 1.488434 -12.463068 10.126863 -5.362800 0.000000 0.000000 9.189170 10.075965 10.402181 2.202700 0.000000 0.000000 
-3.433036 1.064504 -3.646176 -89.845137 6.693716 -10.316215 1.267216 -5.586463 -0.402512 1.291141 -5.600194 0.087518 -7.909230 1.058245 0.586400 -7.909230 1.058245 0.586400 9.334637 6.056221 -11.475107 -6.677035 4.822154 -10.929158 -28.459488 5.893005 -9.028307 0.763295 7.308367 -5.978819 2.235350 67.149976 3.998427 -10.379899 -27.941551 68.648678 0.000001 23.483582 -1.373478 -1.891816 -10.592830 -10.186224 -38.604039 -49.110105 -41.300875 112.066724 -22.264347 8.731886 179.999948 -1.074752 -14.795462 21.884974 -17.790544 4.090309 -26.785700 0.000000 0.000000 6.945181 13.495426 1.023256 10.524300 0.000000 0.000000 1.482620 -12.431663 10.164976 -5.339600 0.000000 0.000000 9.177351 10.064783 10.450592 2.271900 0.000000 0.000000 
-3.431938 1.064496 -3.646547 -89.865000 6.746605 -10.395003 1.274834 -5.592472 -0.388549 1.298861 -5.604991 0.101988 -7.912240 1.070341 0.601705 -7.912240 1.070341 0.601705 9.327977 6.083993 -11.450962 -6.696093 4.830568 -10.900790 -28.495615 5.866612 -9.004852 0.764926 7.323700 -5.979132 1.975159 67.122012 4.194347 -10.372334 -27.909376 68.642574 0.000027 23.434384 -1.430298 -1.880434 -10.585733 -10.132711 -38.630776 -49.128054 -41.311391 112.038072 -22.306463 8.734951 179.999949 -1.058124 -14.794980 21.834387 -17.927773 3.667395 -26.687600 0.000000 0.000000 6.857295 13.779580 0.895886 10.571900 0.000000 0.000000 1.481912 -12.422622 10.232047 -5.328300 0.000000 0.000000 9.189284 10.018038 10.478123 2.301200 0.000000 0.000000 
-3.430803 1.064504 -3.646865 -89.892979 6.810359 -10.474657 1.290983 -5.606381 -0.373788 1.315038 -5.617588 0.117866 -7.922100 1.083537 0.618711 -7.922100 1.083537 0.618711 9.313405 6.109092 -11.423640 -6.717419 4.840196 -10.870234 -28.526674 5.846102 -8.977776 0.759801 7.301303 -5.957675 2.010917 67.188222 4.144880 -10.424074 -27.914761 68.546996 0.000044 23.487583 -1.350295 -1.870218 -10.552273 -10.109593 -38.660576 -49.161968 -41.347712 112.086996 -22.288308 8.749413 -179.999970 -1.058659 -14.824188 21.797535 -18.061520 3.278410 -26.584100 0.000000 0.000000 6.787064 14.105302 0.823222 10.550200 0.000000 0.000000 1.499092 -12.417748 10.246199 -5.332800 0.000000 0.000000 9.245173 9.866936 10.531821 2.189200 0.000000 0.000000 
-3.429571 1.064514 -3.647225 -89.925775 6.855185 -10.566605 1.305007 -5.610691 -0.357915 1.329128 -5.620485 0.134044 -7.929818 1.093233 0.635116 -7.929818 1.093233 0.635116 9.305453 6.139289 -11.396529 -6.736353 4.853662 -10.839337 -28.561216 5.827192 -8.949221 0.762486 7.338466 -5.948210 1.779572 67.146964 4.314572 -10.401668 -27.861515 68.555651 0.000024 23.397801 -1.395905 -1.862473 -10.548103 -10.072279 -38.667094 -49.171593 -41.307908 112.170658 -22.347204 8.807214 -179.999984 -1.097824 -14.821783 21.761092 -18.156454 2.919585 -26.460900 0.000000 0.000000 6.704524 14.498975 0.791509 10.497200 0.000000 0.000000 1.493854 -12.391452 10.276917 -5.283200 0.000000 0.000000 9.220590 9.849636 10.587520 2.272200 0.000000 0.000000 
-3.428271 1.064537 -3.647556 -89.961840 6.899568 -10.654018 1.315718 -5.615801 -0.342142 1.339812 -5.624181 0.150123 -7.929598 1.107228 0.651922 -7.929598 1.107228 0.651922 9.299170 6.157791 -11.366146 -6.757893 4.865391 -10.806605 -28.604966 5.819518 -8.916023 0.760157 7.321957 -5.943792 1.880651 67.231686 4.207028 -10.464207 -27.913801 68.469636 0.000006 23.492115 -1.311086 -1.857329 -10.550330 -10.043065 -38.699717 -49.158228 -41.288814 112.226801 -22.389586 8.847168 179.999999 -1.121058 -14.815601 21.728100 -18.233229 2.594553 -26.339300 0.000000 0.000000 6.586751 14.823123 0.827232 10.478600 0.000000 0.000000 1.493163 -12.361080 10.318943 -5.238000 0.000000 0.000000 9.214178 9.802722 10.627528 2.288600 0.000000 0.000000 
-3.426942 1.064575 -3.647909 -89.998083 6.941821 -10.752332 1.328290 -5.617510 -0.324961 1.352407 -5.624376 0.167406 -7.936729 1.123223 0.669729 -7.936729 1.123223 0.669729 9.291421 6.171528 -11.338476 -6.776828 4.875590 -10.777361 -28.640591 5.815746 -8.885803 0.760125 7.310841 -5.952542 1.849673 67.280869 4.234094 -10.506638 -27.938878 68.404761 0.000045 23.500157 -1.269401 -1.852297 -10.554054 -10.013319 -38.731018 -49.137893 -41.290004 112.240598 -22.403907 8.858442 -179.999984 -1.115277 -14.830574 21.698709 -18.296429 2.283499 -26.206300 0.000000 0.000000 6.439902 15.151784 0.956763 10.532500 0.000000 0.000000 1.493940 -12.327875 10.347429 -5.198500 0.000000 0.000000 9.206343 9.755638 10.695038 2.315400 0.000000 0.000000 
-3.425558 1.064636 -3.648277 -90.046884 6.982523 -10.858502 1.353258 -5.618319 -0.307879 1.377379 -5.623771 0.184488 -7.946096 1.134819 0.686435 -7.946096 1.134819 0.686435 9.291671 6.200287 -11.305698 -6.796239 4.891999 -10.740889 -28.688093 5.803575 -8.849018 0.759772 7.326485 -5.937201 1.801031 67.289092 4.264106 -10.547993 -27.987974 68.357581 0.000048 23.500949 -1.232768 -1.848210 -10.554778 -9.990659 -38.749360 -49.137856 -41.257678 112.288816 -22.421691 8.885968 -179.999991 -1.117522 -14.826385 21.688787 -18.336793 2.007471 -26.075000 0.000000 0.000000 6.285407 15.445693 1.139044 10.520000 0.000000 0.000000 1.493109 -12.289863 10.352163 -5.132000 0.000000 0.000000 9.190259 9.686895 10.803955 2.320100 0.000000 0.000000 
-3.424133 1.064710 -3.648605 -90.101671 7.015582 -10.961024 1.369164 -5.611226 -0.294913 1.393262 -5.615567 0.196845 -7.944727 1.143315 0.697939 -7.944727 1.143315 0.697939 9.281349 6.235228 -11.277682 -6.818721 4.909426 -10.708448 -28.727784 5.786861 -8.817993 0.761396 7.374681 -5.911043 1.548399 67.212785 4.453997 -10.511197 -27.924161 68.386554 0.000021 23.370509 -1.265650 -1.841818 -10.559277 -9.952977 -38.784929 -49.128527 -41.250238 112.341029 -22.409967 8.904334 -179.999996 -1.094748 -14.818167 21.688325 -18.364086 1.707901 -25.938800 0.000000 0.000000 6.077888 15.738451 1.428360 10.528600 0.000000 0.000000 1.505509 -12.240800 10.365165 -5.082600 0.000000 0.000000 9.183485 9.618400 10.896106 2.315100 0.000000 0.000000 
-3.422632 1.064793 -3.648950 -90.151730 7.044797 -11.073082 1.383521 -5.606633 -0.280241 1.407527 -5.609662 0.211011 -7.947536 1.161310 0.712246 -7.947536 1.161310 0.712246 9.272470 6.258274 -11.246388 -6.838919 4.921769 -10.674418 -28.764434 5.774328 -8.784825 0.758358 7.353572 -5.904271 1.635694 67.289291 4.394224 -10.575587 -27.963438 68.289160 0.000032 23.406652 -1.182306 -1.841333 -10.577417 -9.933548 -38.796551 -49.108862 -41.212733 112.426273 -22.407732 8.940597 -179.999990 -1.151675 -14.875674 21.692036 -18.363413 1.463121 -25.797300 0.000000 0.000000 5.838823 15.953657 1.747215 10.531500 0.000000 0.000000 1.508028 -12.184389 10.387606 -5.027200 0.000000 0.000000 9.177006 9.537910 10.979626 2.301900 0.000000 0.000000 
